<?xml version="1.0" encoding="utf-8"?>
<!-- Generator: Adobe Illustrator 16.0.0, SVG Export Plug-In . SVG Version: 6.00 Build 0)  -->
<!DOCTYPE svg PUBLIC "-//W3C//DTD SVG 1.1//EN" "http://www.w3.org/Graphics/SVG/1.1/DTD/svg11.dtd">
<svg version="1.1" id="Layer_1" xmlns="http://www.w3.org/2000/svg" xmlns:xlink="http://www.w3.org/1999/xlink" x="0px" y="0px"
	 width="32px" height="32px" viewBox="0 0 32 32" enable-background="new 0 0 32 32" xml:space="preserve">
<path fill="#FFFFFF" d="M30.072,15.764c-0.27-7.661-6.377-13.696-14.071-13.843C8.227,1.771,2.065,8.452,1.92,16
	c-0.15,7.773,6.532,13.933,14.081,14.08c7.691,0.146,13.802-6.393,14.071-13.843c0.007-0.076,0.011-0.155,0.009-0.238
	C30.083,15.917,30.079,15.84,30.072,15.764L30.072,15.764z M15.812,23.1c0.073,0.086,0.151,0.125,0.234,0.125
	c0.146,0,0.287-0.061,0.423-0.188c0.386-0.313,0.839-0.875,1.361-1.689l0.438,0.25c-1.272,2.211-2.623,3.316-4.051,3.316
	c-0.543,0-0.976-0.152-1.298-0.461c-0.324-0.307-0.485-0.695-0.485-1.166c0-0.313,0.073-0.709,0.22-1.188l1.751-6.021
	c0.167-0.574,0.251-1.007,0.251-1.299c0-0.188-0.082-0.354-0.243-0.501c-0.162-0.146-0.378-0.219-0.649-0.219
	c-0.136,0-0.288,0.005-0.454,0.016l0.157-0.501l4.269-0.688h0.753l-2.583,8.948c-0.136,0.512-0.202,0.85-0.202,1.016
	C15.703,22.934,15.738,23.018,15.812,23.1L15.812,23.1z M19.018,10.252c-0.363,0.359-0.802,0.539-1.313,0.539
	c-0.501,0-0.931-0.18-1.29-0.539c-0.359-0.36-0.54-0.795-0.54-1.307c0-0.509,0.177-0.948,0.532-1.313
	c0.354-0.365,0.787-0.548,1.298-0.548c0.521,0,0.961,0.183,1.322,0.548c0.359,0.365,0.539,0.803,0.539,1.313
	C19.565,9.458,19.384,9.892,19.018,10.252L19.018,10.252z"/>
</svg>
