<?xml version="1.0" encoding="utf-8"?>
<!-- Generator: Adobe Illustrator 16.0.0, SVG Export Plug-In . SVG Version: 6.00 Build 0)  -->
<!DOCTYPE svg PUBLIC "-//W3C//DTD SVG 1.1//EN" "http://www.w3.org/Graphics/SVG/1.1/DTD/svg11.dtd">
<svg version="1.1" id="Layer_1" xmlns="http://www.w3.org/2000/svg" xmlns:xlink="http://www.w3.org/1999/xlink" x="0px" y="0px"
	 width="32px" height="32px" viewBox="0 0 32 32" enable-background="new 0 0 32 32" xml:space="preserve">
<path fill="#FFFFFF" d="M2.688,26.008c-0.785,0.785-0.785,2.049-0.043,2.834c0.392,0.393,0.915,0.611,1.438,0.611
	s1.003-0.174,1.396-0.568l7.631-7.455c1.744,1.133,3.794,1.787,6.018,1.787c5.887,0,10.684-4.623,10.684-10.335
	S25.015,2.547,19.084,2.547c-5.888,0-10.685,4.623-10.64,10.334c0,2.136,0.653,4.144,1.831,5.8L2.688,26.008L2.688,26.008z
	 M26.018,12.882c0,3.706-3.097,6.716-6.934,6.716c-3.838,0-6.934-3.01-6.934-6.716s3.096-6.715,6.934-6.715
	C22.921,6.167,26.018,9.176,26.018,12.882L26.018,12.882z"/>
</svg>
